<?xml version="1.0" standalone="no"?>
<!DOCTYPE svg PUBLIC "-//W3C//DTD SVG 20010904//EN"
 "http://www.w3.org/TR/2001/REC-SVG-20010904/DTD/svg10.dtd">
<svg version="1.0" xmlns="http://www.w3.org/2000/svg"
 width="512.000000pt" height="512.000000pt" viewBox="0 0 512.000000 512.000000"
 preserveAspectRatio="xMidYMid meet">
<metadata>
Created by potrace 1.14, written by Peter Selinger 2001-2017
</metadata>
<g transform="translate(0.000000,512.000000) scale(0.100000,-0.100000)"
fill="#000000" stroke="none">
<path d="M1089 4796 c-2 -2 -22 -7 -43 -10 -56 -9 -145 -35 -186 -54 -19 -9
-37 -16 -40 -17 -26 -2 -239 -149 -240 -165 0 -3 -25 -32 -55 -65 -30 -32 -55
-62 -55 -67 0 -5 -12 -26 -27 -45 -16 -20 -27 -38 -26 -40 1 -1 -9 -26 -22
-55 -14 -29 -25 -61 -25 -70 0 -10 -4 -18 -8 -18 -4 0 -9 -12 -10 -26 -1 -14
-5 -31 -8 -36 -4 -6 -10 -27 -13 -47 -3 -20 -6 -706 -6 -1526 0 -1434 1 -1493
19 -1565 11 -41 34 -108 53 -148 18 -39 33 -77 33 -82 0 -6 4 -10 9 -10 5 0
12 -8 15 -17 3 -10 17 -30 31 -45 14 -16 22 -28 18 -28 -13 0 110 -120 172
-167 79 -60 219 -129 270 -134 6 0 16 -5 23 -11 6 -6 12 -8 12 -5 0 3 26 -1
58 -8 76 -18 2908 -22 3024 -4 135 20 319 103 418 188 52 44 80 71 80 76 0 3
14 18 30 33 17 16 30 32 30 36 0 4 8 16 19 27 10 11 27 37 37 57 10 20 26 48
35 62 14 23 57 143 76 215 12 47 14 2980 2 3045 -14 74 -69 240 -80 240 -5 0
-8 3 -7 8 6 16 -79 139 -140 204 -57 60 -179 158 -197 158 -4 0 -19 9 -33 19
-15 10 -31 20 -37 21 -5 2 -24 9 -42 17 -18 7 -39 13 -47 13 -8 0 -17 4 -20 9
-3 4 -25 12 -48 16 -24 4 -50 10 -58 13 -17 7 -2984 14 -2991 8z"/>
</g>
</svg>
